<?xml version="1.0" standalone="no"?>
<!DOCTYPE svg PUBLIC "-//W3C//DTD SVG 1.1//EN" "http://www.w3.org/Graphics/SVG/1.1/DTD/svg11.dtd">
<svg id="Untitled-Page%201" viewBox="0 0 15 20" style="background-color:#ffffff00" version="1.1"
	xmlns="http://www.w3.org/2000/svg" xmlns:xlink="http://www.w3.org/1999/xlink" xml:space="preserve">
	<defs>
		<linearGradient id="gradient1" x1="53.3333%" y1="55%" x2="46.6667%" y2="63.75%">
			<stop stop-color="#0070ff" stop-opacity="1" offset="0%"/>
			<stop stop-color="#084fee" stop-opacity="1" offset="100%"/>
		</linearGradient>
	</defs>
	<g id="Layer%201">
		<path d="M 11.2376 7.5572 C 11.2856 8.8967 9.6638 9.4238 8.9555 8.4144 C 8.0512 7.1245 8.9743 5.7339 9.1035 4.3681 C 9.2649 2.6563 8.2985 0.9945 7.0993 0 C 7.7599 1.1859 6.8898 2.7549 6.194 3.6318 C 5.5193 4.4824 4.6986 5.1922 3.9537 5.9645 C 3.1537 6.7946 2.3838 7.6683 1.7265 8.6422 C 0.411 10.5914 -0.3945 13.0426 0.1975 15.4746 C 0.7889 17.9051 2.6847 19.4518 4.8257 19.9991 C 3.7454 19.4804 2.7348 18.1631 2.7323 16.815 C 2.7297 15.3452 3.5683 14.0975 4.6118 13.2777 C 4.4863 13.8038 4.4178 14.2851 4.7285 14.7556 C 5.0174 15.1934 5.5233 15.4056 6.0012 15.2903 C 7.1171 15.0192 7.1685 13.6565 6.5068 12.8625 C 5.8524 12.0768 5.2194 11.1886 5.4685 10.0485 C 5.593 9.4773 5.9094 8.9419 6.3097 8.5594 C 6.0016 9.4573 6.8765 10.3428 7.4524 10.7837 C 8.4519 11.549 9.5483 12.1275 10.4676 13.0244 C 11.434 13.967 12.1479 15.2417 12.0039 16.7201 C 11.8474 18.3227 10.7006 19.4372 9.4142 20 C 12.1324 19.334 14.9413 16.9915 14.999 13.6436 C 15.0464 10.8899 13.3454 8.7705 11.2376 7.5572 L 11.2376 7.5572 Z" fill="url(#gradient1)"/>
	</g>
</svg>