<?xml version="1.0" standalone="no"?><!-- Generator: Adobe Fireworks CS6, Export SVG Extension by Aaron Beall (http://fireworks.abeall.com) . Version: 0.6.1  --><!DOCTYPE svg PUBLIC "-//W3C//DTD SVG 1.1//EN" "http://www.w3.org/Graphics/SVG/1.1/DTD/svg11.dtd"><svg id="Untitled-Page%201" viewBox="0 0 127 41" style="background-color:#ffffff00" version="1.1"	xmlns="http://www.w3.org/2000/svg" xmlns:xlink="http://www.w3.org/1999/xlink" xml:space="preserve">	<defs>		<filter id="filter1" filterRes="900" x="-100%" y="-100%" width="300%" height="300%">			<!-- Drop Shadow -->			<feOffset result="out" in="SourceGraphic" dx="0" dy="1"/>			<feColorMatrix result="out" in="out" type="matrix" values="0 0 0 0 0  0 0 0 0 0  0 0 0 0 0  0 0 0 0.6 0"/>			<feGaussianBlur result="out" in="out" stdDeviation="1"/>			<feBlend in="SourceGraphic" in2="out" mode="normal" result="Drop_Shadow1"/>		</filter>		<linearGradient id="gradient1" x1="258.2924%" y1="68.7171%" x2="258.2924%" y2="71.3072%">			<stop stop-color="#ffffff" stop-opacity="1" offset="0%"/>			<stop stop-color="#f4f4f4" stop-opacity="1" offset="100%"/>		</linearGradient>		<linearGradient id="gradient2" x1="291.6033%" y1="63.5487%" x2="291.6033%" y2="66.6345%">			<stop stop-color="#ffffff" stop-opacity="1" offset="0%"/>			<stop stop-color="#f4f4f4" stop-opacity="1" offset="100%"/>		</linearGradient>		<linearGradient id="gradient3" x1="121.8416%" y1="56.25%" x2="121.8416%" y2="59.9537%">			<stop stop-color="#ffffff" stop-opacity="1" offset="0%"/>			<stop stop-color="#f4f4f4" stop-opacity="1" offset="100%"/>		</linearGradient>		<linearGradient id="gradient4" x1="61.1124%" y1="68.5262%" x2="61.1124%" y2="71.1907%">			<stop stop-color="#ffffff" stop-opacity="1" offset="0%"/>			<stop stop-color="#f4f4f4" stop-opacity="1" offset="100%"/>		</linearGradient>		<linearGradient id="gradient5" x1="-24.1095%" y1="56.8089%" x2="-24.1095%" y2="60.5494%">			<stop stop-color="#ffffff" stop-opacity="1" offset="0%"/>			<stop stop-color="#f4f4f4" stop-opacity="1" offset="100%"/>		</linearGradient>		<linearGradient id="gradient6" x1="-162.3721%" y1="56.3754%" x2="-162.3721%" y2="60.1535%">			<stop stop-color="#ffffff" stop-opacity="1" offset="0%"/>			<stop stop-color="#f4f4f4" stop-opacity="1" offset="100%"/>		</linearGradient>		<linearGradient id="gradient7" x1="-893.0947%" y1="-124.6201%" x2="-893.0947%" y2="-105.1672%">			<stop stop-color="#ffffff" stop-opacity="1" offset="0%"/>			<stop stop-color="#f4f4f4" stop-opacity="1" offset="100%"/>		</linearGradient>	</defs>	<g filter="url(#filter1)">		<path d="M 20.7344 4.25 C 21.6719 4.9063 22.1406 6.1094 22.1406 7.875 C 22.1406 8.9219 21.9844 9.8438 21.7031 10.625 C 22.75 10.625 23.7188 10.4688 24.625 10.1406 L 24.8438 9.0625 C 25.3438 6.875 25.9688 5.0781 26.7344 3.7031 C 26.4375 2.8125 25.5625 2.0469 24.1094 1.4219 C 22.6406 0.7969 20.9844 0.4688 19.1094 0.4688 C 15.1094 0.4688 11.8906 1.375 9.4531 3.1719 C 7 4.9844 5.7813 7.7031 5.7813 11.3281 C 5.7813 13.0938 6.3438 14.5469 7.5 15.7031 C 8.6563 16.8594 10.5938 18.2188 13.3125 19.7969 C 16.0313 21.3906 18.0313 22.8906 19.3281 24.3125 C 20.625 25.7344 21.2813 27.2656 21.2813 28.9219 C 21.2813 31.4844 20.2188 33.4375 18.0938 34.7656 L 7.2969 34.7656 C 6.3594 34.1094 5.8906 32.9063 5.8906 31.1406 C 5.8906 30.1094 6.0313 29.1875 6.3125 28.3906 C 5.2656 28.3906 4.2969 28.5625 3.4063 28.875 L 3.125 29.9531 C 2.6563 32.1563 2.0469 33.9375 1.2969 35.2969 C 2.375 37.8281 5.7031 39.0781 11.2813 39.0781 C 15.8438 39.0781 19.4063 38.0469 21.9531 36 C 24.4844 33.9531 25.7656 30.9375 25.7656 26.9375 C 25.7656 25.1406 25 23.4531 23.4688 21.8594 C 21.9375 20.2813 19.4531 18.5156 16.0313 16.5625 C 11.9688 14.2188 9.9375 11.7969 9.9375 9.2969 C 9.9375 6.7969 11.0781 5.125 13.3906 4.25 L 20.7344 4.25 L 20.7344 4.25 Z" fill="url(#gradient1)"/>		<path d="M 34.9212 12.8906 C 35.2025 10.625 35.4212 8.4688 35.6087 6.4063 C 34.3587 6.4063 33.1556 6.7344 31.9994 7.375 C 31.7806 9.25 31.265 10.75 30.4837 11.8594 C 30.1869 12.2656 29.8587 12.6094 29.4994 12.8906 C 29.14 13.1875 28.9056 13.3594 28.7806 13.4063 C 28.6556 13.4688 28.5462 13.5 28.4837 13.5313 C 28.1244 14.2656 27.9525 15.0469 27.9525 15.8594 L 30.7494 15.8594 C 30.4681 20.7656 29.7494 27.5938 28.5931 36.375 C 28.5931 38 29.5931 38.8125 31.6244 38.8125 C 33.5619 37.9531 36.0931 37.375 39.2337 37.0781 C 39.5931 36.3594 39.7806 35.5938 39.7806 34.7656 L 33.2962 34.7656 C 33.4681 28.6094 33.9056 22.3125 34.5931 15.8594 L 40.7962 15.8594 C 41.1556 14.5781 41.3431 13.5 41.3431 12.625 L 34.9212 12.8906 L 34.9212 12.8906 Z" fill="url(#gradient2)"/>		<path d="M 45.2175 15.8594 C 44.8894 22.2656 44.5144 27.0938 44.0769 30.3281 C 43.6394 33.5781 43.1394 36.4063 42.5769 38.8125 C 44.1862 38.8125 45.8737 38.5313 47.655 38 C 48.0769 35.0625 48.53 30.875 48.9987 25.4688 C 50.0769 23.1406 51.4675 20.9531 53.155 18.9219 C 54.8425 16.8906 56.0925 15.8594 56.8894 15.8594 C 57.5612 16.0781 57.905 16.7031 57.905 17.7031 C 57.905 18.1094 57.7331 19.0313 57.4206 20.5 C 58.4519 20.5 59.3425 20.3438 60.0769 20.0156 L 60.3425 19.0938 C 60.8112 17.1563 61.4831 15.4063 62.3894 13.8125 L 62.0612 13.375 C 61.8425 13.0938 61.4675 12.7969 60.905 12.5156 C 60.3425 12.2344 59.7331 12.0781 59.0456 12.0781 C 57.28 12.0781 55.4519 13.0625 53.5612 15.0313 C 51.6706 17 50.28 19 49.3737 21.0469 L 48.8425 20.7188 L 49.7487 14.2344 C 49.7487 13.5156 49.5456 12.9375 49.155 12.4844 C 48.7487 12.0469 48.3112 11.8125 47.8112 11.8125 C 45.8581 12.6875 43.8581 13.25 41.8112 13.5313 C 41.4519 14.2656 41.28 15.0469 41.28 15.8594 L 45.2175 15.8594 L 45.2175 15.8594 Z" fill="url(#gradient3)"/>		<path d="M 64.3575 15.8594 C 63.7794 24.5 63.0919 31.3438 62.3106 36.375 C 62.3106 37.2188 62.4981 37.8281 62.8731 38.2188 C 63.2481 38.6094 63.7012 38.8125 64.2481 38.8125 C 66.1856 37.9531 68.3731 37.375 70.7794 37.0781 C 71.1387 36.3594 71.3262 35.5938 71.3262 34.7656 L 67.0137 34.7656 C 67.295 28.1094 67.8419 21.2656 68.6856 14.2344 C 68.6856 13.5156 68.4825 12.9375 68.0919 12.4844 C 67.6856 12.0469 67.2325 11.8125 66.7325 11.8125 C 64.795 12.6875 62.795 13.25 60.7481 13.5313 C 60.3731 14.2656 60.2012 15.0469 60.2012 15.8594 L 64.3575 15.8594 L 64.3575 15.8594 ZM 64.4669 3.1094 L 64.2481 4.7969 C 64.2481 5.2344 64.4356 5.6094 64.8106 5.9219 C 65.1856 6.25 65.7481 6.4063 66.4669 6.4063 C 68.3731 6.4063 69.5137 5.875 69.92 4.7969 L 70.1856 2.8438 C 70.1856 2.4531 69.9669 2.0938 69.5606 1.7656 C 69.1544 1.4531 68.5919 1.2813 67.8731 1.2813 C 67.1544 1.2813 66.4512 1.4531 65.7637 1.7969 C 65.0762 2.1406 64.6387 2.5781 64.4669 3.1094 L 64.4669 3.1094 Z" fill="url(#gradient4)"/>		<path d="M 81.2475 14.2344 C 81.2475 13.4844 81.0444 12.9063 80.6537 12.4688 C 80.2475 12.0313 79.81 11.8125 79.31 11.8125 C 77.3569 12.6875 75.3569 13.25 73.31 13.5313 C 72.9506 14.2656 72.7787 15.0469 72.7787 15.8594 L 76.6069 15.8594 C 76.5287 20.3906 76.1381 27.2344 75.4194 36.375 L 75.8569 36.9219 C 76.1381 37.2813 76.7787 37.6406 77.7944 38 C 78.7944 38.3594 80.0287 38.5469 81.4662 38.5469 C 85.5287 38.5469 89.0912 36.3125 92.1537 31.8281 C 95.2162 27.3438 96.7475 20.6719 96.7475 11.8125 C 94.2944 11.8125 92.3569 12.4844 90.9194 13.8125 C 91.7787 15.6563 92.2162 17.7344 92.2162 20.0469 C 92.2162 22.375 91.9037 24.5469 91.2944 26.5469 C 89.9194 31.0156 87.7787 33.7656 84.8725 34.7656 L 79.7475 34.7656 C 79.7475 28.5469 80.2475 21.7031 81.2475 14.2344 L 81.2475 14.2344 Z" fill="url(#gradient5)"/>		<path d="M 106.6688 34.7656 C 103.7 34.375 102.2313 31.7031 102.2313 26.7656 C 112.3875 26.5469 117.4656 23.2031 117.4656 16.7188 C 117.4656 15.4375 117.0438 14.3438 116.2156 13.4375 C 115.3875 12.5313 114.0906 12.0781 112.325 12.0781 C 109.5125 12.0781 107.0125 12.9531 104.7938 14.7031 C 102.575 16.4531 100.9344 18.5469 99.8563 21.0156 C 98.7625 23.4844 98.2313 25.9688 98.2313 28.4375 C 98.2313 35.1875 101.325 38.5469 107.5281 38.5469 C 109.1844 38.5469 111.9188 38.0469 115.7313 37.0781 C 116.0906 36.3594 116.2781 35.5938 116.2781 34.7656 L 106.6688 34.7656 L 106.6688 34.7656 ZM 111.1375 22.5781 C 109.45 23.6406 106.5281 24.25 102.4031 24.3906 C 102.6844 22.3906 103.2469 20.5781 104.1219 18.9688 C 104.9813 17.375 106.0125 16.3281 107.2 15.8594 L 112.1688 15.8594 C 113.1688 16.1563 113.6844 16.8906 113.6844 18.0781 C 113.6844 20.0156 112.825 21.5156 111.1375 22.5781 L 111.1375 22.5781 Z" fill="url(#gradient6)"/>		<path d="M 120.2462 35.25 L 120.0275 36.9219 C 120.0275 37.3594 120.215 37.7344 120.59 38.0625 C 120.965 38.375 121.5119 38.5469 122.2462 38.5469 C 124.1525 38.5469 125.2931 38 125.6994 36.9219 L 125.965 34.9688 C 125.965 34.5781 125.7462 34.2188 125.34 33.8906 C 124.9337 33.5781 124.3556 33.4063 123.6369 33.4063 C 122.9181 33.4063 122.215 33.5781 121.5275 33.9219 C 120.84 34.2656 120.4181 34.7188 120.2462 35.25 L 120.2462 35.25 Z" fill="url(#gradient7)"/>	</g></svg>