<?xml version="1.0" standalone="no"?><!-- Generator: Adobe Fireworks CS6, Export SVG Extension by Aaron Beall (http://fireworks.abeall.com) . Version: 0.6.1  --><!DOCTYPE svg PUBLIC "-//W3C//DTD SVG 1.1//EN" "http://www.w3.org/Graphics/SVG/1.1/DTD/svg11.dtd"><svg id="Untitled-Page%201" viewBox="0 0 25 37" style="background-color:#ffffff00" version="1.1"	xmlns="http://www.w3.org/2000/svg" xmlns:xlink="http://www.w3.org/1999/xlink" xml:space="preserve"	x="0px" y="0px" width="25px" height="37px">	<defs>		<filter id="filter1" x="-100%" filterRes="400" y="-100%" width="300%" height="300%">			<!-- Drop Shadow -->			<feOffset result="out" in="SourceGraphic" dx="0" dy="1"/>			<feColorMatrix result="out" in="out" type="matrix" values="0 0 0 0 0  0 0 0 0 0  0 0 0 0 0  0 0 0 0.4 0"/>			<feGaussianBlur result="out" in="out" stdDeviation="1"/>			<feBlend in="SourceGraphic" in2="out" mode="normal" result="Drop_Shadow1"/>		</filter>		<linearGradient id="gradient1" x1="81.3882%" y1="58.3569%" x2="81.3882%" y2="60.947%">			<stop stop-color="#ffffff" stop-opacity="1" offset="0%"/>			<stop stop-color="#f4f4f4" stop-opacity="1" offset="100%"/>		</linearGradient>	</defs>	<g id="Layer%201">		<path filter="url(#filter1)" d="M 18.7344 3 C 19.6719 3.6563 20.1406 5.1094 20.1406 6.875 C 20.1406 7.9219 19.9844 8.8438 19.7031 9.625 C 20.75 9.625 21.7188 9.4688 22.625 9.1406 L 22.8438 8.0625 C 23.3438 5.875 23.9688 4.0781 24.7344 2.7031 C 24.4375 1.8125 23.5625 1.0469 22.1094 0.4219 C 20.6406 -0.2031 18.9844 -0.5313 17.1094 -0.5313 C 13.1094 -0.5313 9.8906 0.375 7.4531 2.1719 C 5 3.9844 3.7813 6.7031 3.7813 10.3281 C 3.7813 12.0938 4.3438 13.5469 5.5 14.7031 C 6.6563 15.8594 8.5938 17.2188 11.3125 18.7969 C 14.0313 20.3906 16.0313 21.8906 17.3281 23.3125 C 18.625 24.7344 19.2813 26.5 19.2813 28.1563 C 19.2813 30.7188 18.2188 32.6719 16.0938 34 L 5.2969 34 C 4.3594 33.3438 3.8906 32.1406 3.8906 30.375 C 3.8906 29.3438 4.0313 28.1875 4.3125 27.3906 C 3.2656 27.3906 2.2969 27.5625 1.4063 27.875 L 1.125 28.9531 C 0.6563 31.1563 0.0469 32.9375 -0.7031 34.2969 C 0.375 36.8281 3.7031 38.0781 9.2813 38.0781 C 13.8438 38.0781 17.4063 37.0469 19.9531 35 C 22.4844 32.9531 23.7656 29.9375 23.7656 25.9375 C 23.7656 24.1406 23 22.4531 21.4688 20.8594 C 19.9375 19.2813 17.4531 17.5156 14.0313 15.5625 C 9.9688 13.2188 7.9375 10.5469 7.9375 8.0469 C 7.9375 5.5469 9.0781 3.875 11.3906 3 L 18.7344 3 L 18.7344 3 Z" fill="url(#gradient1)"/>	</g></svg>